HIERARCHY
ROOT Hips
{
	OFFSET 0.000000 0.000000 0.000000
	CHANNELS 6 Xposition Yposition Zposition Zrotation Yrotation Xrotation 
	JOINT LHipJoint
	{
		OFFSET 0.000000 0.000000 0.000000
		CHANNELS 3 Zrotation Yrotation Xrotation
		JOINT LeftUpLeg
		{
			OFFSET 1.363060 -1.794630 0.839290
			CHANNELS 3 Zrotation Yrotation Xrotation
			JOINT LeftLeg
			{
				OFFSET 2.448110 -6.726130 0.000000
				CHANNELS 3 Zrotation Yrotation Xrotation
				JOINT LeftFoot
				{
					OFFSET 2.562200 -7.039590 0.000000
					CHANNELS 3 Zrotation Yrotation Xrotation
					JOINT LeftToeBase
					{
						OFFSET 0.157640 -0.433110 2.322550
						CHANNELS 3 Zrotation Yrotation Xrotation
						End Site
						{
							OFFSET 0.000000 0.000000 0.000000
						}
					}
				}
			}
		}
	}
	JOINT RHipJoint
	{
		OFFSET 0.000000 0.000000 0.000000
		CHANNELS 3 Zrotation Yrotation Xrotation
		JOINT RightUpLeg
		{
			OFFSET -1.305520 -1.794630 0.839290
			CHANNELS 3 Zrotation Yrotation Xrotation
			JOINT RightLeg
			{
				OFFSET -2.542530 -6.985550 0.000000
				CHANNELS 3 Zrotation Yrotation Xrotation
				JOINT RightFoot
				{
					OFFSET -2.568260 -7.056230 0.000000
					CHANNELS 3 Zrotation Yrotation Xrotation
					JOINT RightToeBase
					{
						OFFSET -0.164730 -0.452590 2.363150
						CHANNELS 3 Zrotation Yrotation Xrotation
						End Site
						{
							OFFSET 0.000000 0.000000 0.000000
						}
					}
				}
			}
		}
	}
	JOINT LowerBack
	{
		OFFSET 0.000000 0.000000 0.000000
		CHANNELS 3 Zrotation Yrotation Xrotation
		JOINT Spine
		{
			OFFSET 0.028270 2.035590 -0.193380
			CHANNELS 3 Zrotation Yrotation Xrotation
			JOINT Spine1
			{
				OFFSET 0.056720 2.048850 -0.042750
				CHANNELS 3 Zrotation Yrotation Xrotation
				JOINT Neck
				{
					OFFSET 0.000000 0.000000 0.000000
					CHANNELS 3 Zrotation Yrotation Xrotation
					JOINT Neck1
					{
						OFFSET -0.054170 1.746240 0.172020
						CHANNELS 3 Zrotation Yrotation Xrotation
						JOINT Head
						{
							OFFSET 0.104070 1.761360 -0.123970
							CHANNELS 3 Zrotation Yrotation Xrotation
							End Site
							{
								OFFSET 0.000000 0.000000 0.000000
							}
						}
					}
				}
				JOINT LeftShoulder
				{
					OFFSET 0.000000 0.000000 0.000000
					CHANNELS 3 Zrotation Yrotation Xrotation
					JOINT LeftArm
					{
						OFFSET 3.362410 1.200890 -0.311210
						CHANNELS 3 Zrotation Yrotation Xrotation
						JOINT LeftForeArm
						{
							OFFSET 4.983000 -0.000000 -0.000000
							CHANNELS 3 Zrotation Yrotation Xrotation
							JOINT LeftHand
							{
								OFFSET 3.483560 -0.000000 -0.000000
								CHANNELS 3 Zrotation Yrotation Xrotation
								JOINT LeftFingerBase
								{
									OFFSET 0.000000 0.000000 0.000000
									CHANNELS 3 Zrotation Yrotation Xrotation
									JOINT LeftHandIndex1
									{
										OFFSET 0.715260 -0.000000 -0.000000
										CHANNELS 3 Zrotation Yrotation Xrotation
										End Site
										{
											OFFSET 0.000000 0.000000 0.000000
										}
									}
								}
								JOINT LThumb
								{
									OFFSET 0.000000 0.000000 0.000000
									CHANNELS 3 Zrotation Yrotation Xrotation
									End Site
									{
										OFFSET 0.000000 0.000000 0.000000
									}
								}
							}
						}
					}
				}
				JOINT RightShoulder
				{
					OFFSET 0.000000 0.000000 0.000000
					CHANNELS 3 Zrotation Yrotation Xrotation
					JOINT RightArm
					{
						OFFSET -3.136600 1.374050 -0.404650
						CHANNELS 3 Zrotation Yrotation Xrotation
						JOINT RightForeArm
						{
							OFFSET -5.241900 -0.000000 -0.000000
							CHANNELS 3 Zrotation Yrotation Xrotation
							JOINT RightHand
							{
								OFFSET -3.444170 -0.000000 -0.000000
								CHANNELS 3 Zrotation Yrotation Xrotation
								JOINT RightFingerBase
								{
									OFFSET 0.000000 0.000000 0.000000
									CHANNELS 3 Zrotation Yrotation Xrotation
									JOINT RightHandIndex1
									{
										OFFSET -0.622530 -0.000000 -0.000000
										CHANNELS 3 Zrotation Yrotation Xrotation
										End Site
										{
											OFFSET 0.000000 0.000000 0.000000
										}
									}
								}
								JOINT RThumb
								{
									OFFSET 0.000000 0.000000 0.000000
									CHANNELS 3 Zrotation Yrotation Xrotation
									End Site
									{
										OFFSET 0.000000 0.000000 0.000000
									}
								}
							}
						}
					}
				}
			}
		}
	}
}
MOTION
Frames: 8
Frame Time: 0.008333
8.686406 16.164786 -0.391748 4.125052 80.332716 16.482327 10.914706 -1.504490 -3.400846 -16.887775 0.956703 -48.294587 5.871110 20.074783 51.880856 1.041060 -3.887843 -1.133408 0.032300 -1.160000 -3.189000 -8.566041 3.216962 -4.503952 17.579444 -1.813633 -30.106418 -9.848441 -20.268864 61.625158 -1.956215 -1.899316 -27.569341 -0.713500 5.398300 -15.048300 -2.409526 2.084692 22.550322 -0.500092 2.846971 3.716508 1.196005 1.339905 -5.584530 -2.292142 2.517481 -10.338444 0.476692 2.440265 2.071631 -2.830100 0.729300 5.338600 7.633018 -1.343445 -0.672489 -80.227350 -22.994469 30.757543 40.858978 -44.142009 -22.725081 -1.065433 -0.890481 -28.187452 19.436256 -30.833391 -10.836100 -7.125000 0.000000 0.000000 -5.936800 -1.838800 6.157000 -1.703110 0.053570 -2.446908 74.196913 27.246744 19.789373 -19.988439 30.927933 -8.341230 1.099685 -0.425581 -14.827528 -10.505852 26.230308 -5.228300 7.125000 0.000000 0.000000 11.107500 -3.103000 10.695900 
8.711614 16.163704 -0.419553 3.554424 80.238854 15.959178 10.918014 -1.505050 -3.403489 -16.912927 1.032251 -48.337521 5.936575 20.105067 52.069172 1.047290 -3.911080 -1.346550 0.036600 -1.234300 -3.393700 -8.564020 3.211049 -4.495563 17.556709 -1.718209 -30.016165 -9.783398 -20.247762 61.452583 -1.887714 -2.120376 -27.516854 -0.771300 5.607800 -15.650500 -2.473849 2.092172 22.569524 -0.497987 2.843064 3.689396 1.260538 1.338689 -5.679900 -2.448987 2.616259 -10.081963 0.666481 2.578162 1.997259 -2.712900 0.806900 5.263200 7.623704 -1.330119 -0.673025 -80.294707 -22.930078 30.745454 40.795015 -44.107011 -22.673515 -1.061486 -0.898167 -28.338411 19.326017 -30.709165 -10.735500 -7.125000 0.000000 0.000000 -5.983200 -1.688100 6.190400 -1.698171 0.039449 -2.448448 74.429746 27.037135 19.820170 -19.978700 30.935747 -8.337199 1.103646 -0.447676 -14.703366 -10.435582 26.478210 -5.243000 7.125000 0.000000 0.000000 11.163200 -2.847200 10.804900 
8.738985 16.168464 -0.448872 2.818221 80.170408 15.257991 10.924500 -1.509682 -3.410302 -16.920845 1.078512 -48.324158 5.992616 20.129757 52.229741 1.054540 -3.941074 -1.519888 0.031200 -1.139500 -3.132700 -8.559212 3.205096 -4.490118 17.531042 -1.627137 -29.863591 -9.722700 -20.222677 61.262779 -1.896682 -2.043581 -27.429734 -0.771000 5.606800 -15.647700 -2.386878 2.079570 22.540583 -0.518356 2.850035 3.701199 1.188256 1.329471 -5.619521 -2.431033 2.491681 -10.337591 0.724325 2.459962 2.259931 -2.703900 0.760700 5.407600 7.621396 -1.294306 -0.680782 -80.314242 -22.934123 30.787597 40.840994 -44.130295 -22.713072 -1.061575 -0.903240 -28.461837 19.291851 -30.712178 -10.718800 -7.125000 0.000000 0.000000 -6.001300 -1.683600 6.208800 -1.703580 0.043454 -2.459087 74.627911 26.859238 19.882862 -20.053960 31.033140 -8.388325 1.113232 -0.450045 -14.766818 -10.446651 26.642851 -5.281900 7.125000 0.000000 0.000000 11.160800 -2.677800 10.837600 
8.763327 16.177552 -0.477974 1.966521 80.189690 14.451406 10.938203 -1.513765 -3.417701 -16.919176 1.102730 -48.353793 6.036456 20.151287 52.357396 1.063352 -3.991274 -1.608461 0.022100 -0.959800 -2.638200 -8.548282 3.199330 -4.488112 17.575621 -1.668898 -29.722627 -9.662159 -20.191848 61.076843 -1.889738 -2.039984 -27.379044 -0.791600 5.679400 -15.856900 -2.254802 2.052110 22.545226 -0.513969 2.850329 3.731910 1.140520 1.313310 -5.541973 -2.445432 2.336739 -10.647886 0.757820 2.304776 2.428625 -2.703500 0.688300 5.524300 7.619927 -1.276769 -0.687272 -80.379270 -23.105429 30.802288 40.739126 -44.057447 -22.606998 -1.070091 -0.888444 -28.415290 19.453507 -30.912089 -10.875400 -7.125000 0.000000 0.000000 -5.935900 -1.931400 6.165300 -1.708195 0.053382 -2.469232 74.758405 26.683153 19.976036 -20.154973 31.149625 -8.445495 1.143945 -0.439013 -15.102106 -10.675023 26.811987 -5.433700 7.125000 0.000000 0.000000 11.018000 -2.479400 10.733900 
8.785939 16.181230 -0.505778 1.893838 80.137706 14.418030 10.938853 -1.511232 -3.406841 -17.024533 1.090181 -48.389854 6.072211 20.190300 52.480318 1.046536 -3.868808 -1.797591 0.032500 -1.164300 -3.201000 -8.543365 3.197899 -4.495030 17.497284 -1.731351 -29.631098 -9.607896 -20.145495 60.910742 -1.842944 -2.188362 -27.333645 -0.839100 5.843100 -16.329900 -2.371632 2.066735 22.596624 -0.517791 2.846035 3.726035 1.200660 1.314525 -5.608069 -2.365838 2.364257 -10.559263 0.706208 2.302863 2.322988 -2.738400 0.682700 5.469900 7.621331 -1.284247 -0.683783 -80.409696 -23.207387 30.776163 40.580439 -43.959168 -22.461087 -1.070741 -0.882446 -28.442756 19.483948 -30.896864 -10.888400 -7.125000 0.000000 0.000000 -5.918600 -1.928300 6.146900 -1.705791 0.025564 -2.481439 75.000300 26.419976 20.033812 -20.284285 31.306215 -8.534745 1.153817 -0.420592 -15.315170 -10.683906 26.841300 -5.446400 7.125000 0.000000 0.000000 11.006700 -2.460400 10.726400 
8.809524 16.181014 -0.533799 2.425193 79.983575 14.946908 10.924697 -1.505442 -3.384277 -17.213758 1.076890 -48.357301 6.104926 20.235436 52.605236 1.031594 -3.751604 -2.036921 0.039600 -1.284400 -3.531800 -8.545561 3.200562 -4.509234 17.256926 -1.712239 -29.471327 -9.569887 -20.085176 60.743681 -1.900849 -1.935559 -27.232145 -0.774500 5.619000 -15.683000 -2.645522 2.085071 22.641529 -0.537283 2.810312 3.717920 1.312622 1.309488 -5.692536 -2.255176 2.522793 -10.329338 0.572436 2.455458 2.237620 -2.796100 0.751300 5.406900 7.624126 -1.291493 -0.678849 -80.457500 -23.199127 30.630895 40.478439 -43.901641 -22.374410 -1.064721 -0.883834 -28.445671 19.374896 -30.767649 -10.784300 -7.125000 0.000000 0.000000 -5.966900 -1.773800 6.182000 -1.702726 -0.013503 -2.492137 75.308671 26.169612 20.233900 -20.424394 31.476631 -8.636662 1.153952 -0.399890 -15.410251 -10.618439 26.799814 -5.406500 7.125000 0.000000 0.000000 11.039600 -2.527500 10.746000 
8.831053 16.187072 -0.559331 1.314651 79.933439 13.852658 10.932348 -1.513378 -3.400658 -17.131431 1.163362 -48.327884 6.149844 20.231769 52.712580 1.045576 -3.830259 -2.101363 0.026900 -1.059000 -2.911100 -8.540353 3.191639 -4.494870 17.344523 -1.631459 -29.307803 -9.505614 -20.068844 60.540019 -1.940922 -1.745803 -27.151871 -0.726700 5.446800 -15.187300 -2.583068 2.035158 22.668380 -0.531449 2.764785 3.736410 1.316333 1.276083 -5.676729 -2.217486 2.606305 -10.344400 0.567465 2.566604 2.282759 -2.791900 0.807700 5.435100 7.625759 -1.293463 -0.671707 -80.425837 -23.360724 30.451386 40.270581 -43.773528 -22.182622 -1.062929 -0.874524 -28.466927 19.361227 -30.735105 -10.766200 -7.125000 0.000000 0.000000 -5.975300 -1.746900 6.188100 -1.709359 -0.029570 -2.503254 75.597172 25.950380 20.603638 -20.596441 31.674648 -8.749343 1.174774 -0.373603 -15.665824 -10.791127 26.832110 -5.502500 7.125000 0.000000 0.000000 10.923800 -2.488700 10.636800 
8.852691 16.195511 -0.585188 -0.453395 79.989904 12.201451 10.956880 -1.531648 -3.430832 -16.915032 1.169517 -48.396263 6.190987 20.229461 52.803268 1.058570 -3.905957 -2.122623 0.017100 -0.844400 -2.320800 -8.530950 3.177036 -4.470315 17.578164 -1.574996 -29.264035 -9.423405 -20.070191 60.324761 -1.905419 -1.844183 -27.110913 -0.746400 5.518400 -15.393400 -2.285060 1.974445 22.595798 -0.524180 2.754272 3.752894 1.187244 1.249499 -5.599625 -2.114430 2.624286 -10.398572 0.522804 2.575493 2.300096 -2.823300 0.811500 5.454600 7.635409 -1.294259 -0.660999 -80.366152 -23.570058 30.468413 40.114004 -43.672410 -22.037563 -1.062955 -0.870343 -28.645744 19.338181 -30.720131 -10.750800 -7.125000 0.000000 0.000000 -5.988600 -1.736000 6.200900 -1.726562 -0.068590 -2.525036 75.895017 25.590634 20.755177 -20.910222 32.036925 -8.974039 1.183970 -0.320647 -15.880630 -10.932768 26.658430 -5.538700 7.125000 0.000000 0.000000 10.815200 -2.686200 10.487500 
